# xmcd
#
# Track frame offsets: 
#        150
#        15824
#        36225
#        55537
#        78414
#        96319
#        120875
#        144694
#        166502
#        180080
#        201955
#        223729
#        245513
#        268626
#        290141
#        310078
#
# Disc length: 4340 seconds
#
# Revision: 0
# Processed by: cddbd v1.5.2PL0 Copyright (c) Steve Scherf et al.
# Submitted via: ExactAudioCopy v0.95a3
#
DISCID=d110f210
DTITLE=Eric Clapton - Reptile
DYEAR=1900
DGENRE=Rock
TTITLE0=Reptile
TTITLE1=Got you on my mind
TTITLE2=Travelin' light
TTITLE3=Belive in life
TTITLE4=Comeback baby
TTITLE5=Broken down
TTITLE6=Find myself
TTITLE7=I ain't gonna stand for it
TTITLE8=I want a little girl
TTITLE9=Second nature
TTITLE10=Don't tell me be lonely tonight
TTITLE11=Modern girl
TTITLE12=Superman inside
TTITLE13=Son and Sylvia
TTITLE14=I shot the sheriff (bonus)
TTITLE15=Cocaine (bonus)
EXTD=
EXTT0=
EXTT1=
EXTT2=
EXTT3=
EXTT4=
EXTT5=
EXTT6=
EXTT7=
EXTT8=
EXTT9=
EXTT10=
EXTT11=
EXTT12=
EXTT13=
EXTT14=
EXTT15=
PLAYORDER=
